<svg width="918" height="918" viewBox="0 0 918 918" fill="none" xmlns="http://www.w3.org/2000/svg">
<circle cx="459" cy="459" r="459" fill="#9A9A9A"/>
<path d="M459.333 230C310.547 230 177.067 318.636 86 459.04C177.073 599.44 310.547 688.08 459.333 688.08C608.093 688.08 741.573 599.444 832.627 459.04C741.575 318.64 608.093 230 459.333 230ZM459.333 602.173C380.407 602.173 316.213 537.965 316.213 459.027C316.213 380.1 380.401 315.893 459.333 315.893C538.213 315.893 602.453 380.101 602.453 459.027C602.459 537.959 538.224 602.173 459.333 602.173Z" fill="white"/>
<path d="M459.335 373.16C411.986 373.16 373.48 411.69 373.48 459.04C373.48 506.389 411.986 544.941 459.335 544.941C506.658 544.941 545.19 506.384 545.19 459.04C545.195 411.69 506.659 373.16 459.335 373.16Z" fill="white"/>
</svg>
