<svg width="698" height="697" viewBox="0 0 698 697" fill="none" xmlns="http://www.w3.org/2000/svg">
<path fill-rule="evenodd" clip-rule="evenodd" d="M349.138 0C541.605 0 697.618 156.013 697.618 348.48C697.618 540.947 541.605 696.96 349.138 696.96C156.672 696.96 0.658203 540.947 0.658203 348.48C0.658203 156.013 156.672 0 349.138 0V0ZM349.138 276.28C375.726 276.28 397.477 298.029 397.477 324.597V537.037C397.477 563.625 375.728 585.355 349.138 585.355C322.55 585.355 300.8 563.605 300.8 537.037V324.597C300.8 298.009 322.549 276.28 349.138 276.28ZM349.138 208.24C375.841 208.24 397.477 186.6 397.477 159.901C397.477 133.199 375.837 111.584 349.138 111.584C322.436 111.584 300.8 133.224 300.8 159.901C300.8 186.604 322.44 208.24 349.138 208.24Z" fill="#797979"/>
</svg>
