<svg width="1456" height="1456" viewBox="0 0 1456 1456" fill="none" xmlns="http://www.w3.org/2000/svg">
<path d="M727.99 1399.97C1099.09 1399.97 1399.92 1099.12 1399.92 728.012C1399.92 356.9 1099.09 56.0547 727.99 56.0547C356.894 56.0547 56.0615 356.9 56.0615 728.012C56.0615 1099.12 356.894 1399.97 727.99 1399.97Z" fill="#F71111"/>
<path d="M727.999 1456C541.482 1456 354.966 1385.02 212.963 1243.07C-70.9877 959.106 -70.9877 496.971 212.963 212.951C496.914 -70.9553 959.086 -71.0121 1243.04 212.951C1526.99 496.971 1526.99 959.049 1243.04 1243.07C1101.03 1385.02 914.458 1456 727.999 1456ZM292.737 292.729C52.7945 532.739 52.7945 923.281 292.737 1163.29C532.794 1403.25 923.317 1403.3 1163.26 1163.29C1403.21 923.281 1403.21 532.739 1163.26 292.729C923.203 52.7755 532.737 52.7755 292.737 292.729Z" fill="#F71111"/>
<path d="M532.116 980.208C517.673 980.208 503.232 974.68 492.229 963.677C470.17 941.616 470.17 905.959 492.229 883.899L891.101 485.01C913.16 462.949 948.816 462.949 970.875 485.01C992.935 507.07 992.935 542.727 970.875 564.788L572.003 963.677C560.944 974.68 546.557 980.208 532.116 980.208Z" fill="white"/>
<path d="M930.932 980.208C916.488 980.208 902.047 974.68 891.044 963.677L492.172 564.788C470.113 542.727 470.113 507.07 492.172 485.01C514.232 462.949 549.887 462.949 571.947 485.01L970.819 883.899C992.878 905.959 992.878 941.616 970.819 963.677C959.819 974.68 945.375 980.208 930.932 980.208Z" fill="white"/>
</svg>
