<svg width="593" height="731" viewBox="0 0 593 731" fill="none" xmlns="http://www.w3.org/2000/svg">
<path d="M70.84 686.04H507.88V730.936H0V73.0827H56.6933V671.923C56.709 679.725 63.0371 686.037 70.8387 686.037L70.84 686.04ZM592.827 153.16V657.853H84.9867V0H439.653V139.067C439.653 146.879 445.987 153.212 453.799 153.212L592.827 153.16ZM179.253 137.963C179.253 145.775 185.587 152.108 193.399 152.108H251.388C255.294 152.368 259.138 150.999 261.997 148.327C264.857 145.65 266.477 141.91 266.477 137.993C266.477 134.077 264.857 130.337 261.997 127.66C259.138 124.988 255.294 123.619 251.388 123.879H193.367C185.591 123.895 179.288 130.186 179.252 137.962L179.253 137.963ZM498.52 536.349C498.52 528.537 492.187 522.204 484.375 522.204H193.375C185.922 522.668 180.109 528.85 180.109 536.324C180.109 543.793 185.922 549.975 193.375 550.444H484.415C492.196 550.423 498.497 544.131 498.529 536.351L498.52 536.349ZM498.52 386.429C498.52 378.612 492.187 372.279 484.375 372.279H193.375C185.948 372.779 180.172 378.951 180.172 386.399C180.172 393.847 185.948 400.019 193.375 400.513H484.415C492.191 400.498 498.497 394.206 498.529 386.431L498.52 386.429ZM498.52 236.496C498.52 228.683 492.187 222.351 484.375 222.351H193.375C185.948 222.845 180.172 229.017 180.172 236.465C180.172 243.913 185.948 250.085 193.375 250.58H484.415C492.191 250.564 498.497 244.273 498.529 236.497L498.52 236.496ZM467.875 19.9493V124.955H572.859L467.875 19.9493Z" fill="#7571F9"/>
</svg>
