<svg width="1456" height="1456" viewBox="0 0 1456 1456" fill="none" xmlns="http://www.w3.org/2000/svg">
<path d="M728 1399.61C1098.92 1399.61 1399.61 1098.92 1399.61 728C1399.61 357.081 1098.92 56.3916 728 56.3916C357.081 56.3916 56.3916 357.081 56.3916 728C56.3916 1098.92 357.081 1399.61 728 1399.61Z" fill="#7571F9"/>
<path d="M728 1456C326.613 1456 0 1129.44 0 728C0 326.613 326.613 0 728 0C1129.44 0 1456 326.613 1456 728C1456 1129.44 1129.44 1456 728 1456ZM728 112.78C388.755 112.78 112.78 388.755 112.78 728C112.78 1067.25 388.755 1343.22 728 1343.22C1067.25 1343.22 1343.22 1067.19 1343.22 728C1343.22 388.755 1067.25 112.78 728 112.78Z" fill="#7571F9"/>
<path d="M728 1061.27C696.872 1061.27 671.608 1036.06 671.608 1004.88V440.972C671.608 409.844 696.872 384.58 728 384.58C759.128 384.58 784.391 409.844 784.391 440.972V1004.88C784.391 1036.06 759.128 1061.27 728 1061.27Z" fill="white"/>
<path d="M1009.95 779.316H446.048C414.92 779.316 389.656 754.052 389.656 722.924C389.656 691.796 414.92 666.532 446.048 666.532H1009.95C1041.14 666.532 1066.34 691.796 1066.34 722.924C1066.34 754.052 1041.14 779.316 1009.95 779.316Z" fill="white"/>
</svg>
