<svg width="697" height="697" viewBox="0 0 697 697" fill="none" xmlns="http://www.w3.org/2000/svg">
<path fill-rule="evenodd" clip-rule="evenodd" d="M348.48 0C540.947 0 696.96 156.013 696.96 348.48C696.96 540.947 540.947 696.96 348.48 696.96C156.013 696.96 0 540.947 0 348.48C0 156.013 156.013 0 348.48 0V0ZM348.48 276.28C375.068 276.28 396.819 298.029 396.819 324.597V537.037C396.819 563.625 375.069 585.355 348.48 585.355C321.892 585.355 300.141 563.605 300.141 537.037V324.597C300.141 298.009 321.891 276.28 348.48 276.28ZM348.48 208.24C375.183 208.24 396.819 186.6 396.819 159.901C396.819 133.199 375.179 111.584 348.48 111.584C321.777 111.584 300.141 133.224 300.141 159.901C300.141 186.604 321.781 208.24 348.48 208.24Z" fill="#00519C"/>
</svg>
