<svg width="747" height="459" viewBox="0 0 747 459" fill="none" xmlns="http://www.w3.org/2000/svg">
<path d="M372.855 143C325.505 143 287 181.531 287 228.88C287 276.229 325.505 314.781 372.855 314.781C420.177 314.781 458.709 276.224 458.709 228.88C458.715 181.531 420.179 143 372.855 143Z" fill="#00519C"/>
<path d="M373.333 0C224.547 0 91.0667 88.636 0 229.04C91.0733 369.44 224.547 458.08 373.333 458.08C522.093 458.08 655.573 369.444 746.627 229.04C655.575 88.64 522.093 0 373.333 0ZM373.333 372.173C294.407 372.173 230.213 307.965 230.213 229.027C230.213 150.1 294.401 85.8933 373.333 85.8933C452.213 85.8933 516.453 150.101 516.453 229.027C516.459 307.959 452.224 372.173 373.333 372.173Z" fill="#00519C"/>
</svg>
